<?xml version="1.0" standalone="no"?>
<!DOCTYPE svg PUBLIC "-//W3C//DTD SVG 20010904//EN"
 "http://www.w3.org/TR/2001/REC-SVG-20010904/DTD/svg10.dtd">
<svg version="1.0" xmlns="http://www.w3.org/2000/svg"
 width="260.000000pt" height="260.000000pt" viewBox="0 0 260.000000 260.000000"
 preserveAspectRatio="xMidYMid meet">
<metadata>
Created by potrace 1.11, written by Peter Selinger 2001-2013
</metadata>
<g transform="translate(0.000000,260.000000) scale(0.100000,-0.100000)"
fill="#000000" stroke="none">
<path d="M2569 2596 c-3 -3 -20 -8 -39 -11 -266 -44 -672 -210 -935 -382 -232
-152 -453 -362 -635 -606 -19 -25 -38 -47 -41 -47 -12 0 -60 70 -73 107 -7 21
-12 57 -10 80 l3 42 -32 -11 c-117 -37 -270 -116 -383 -198 -85 -62 -231 -214
-288 -299 -49 -74 -126 -220 -126 -240 0 -6 19 1 43 16 111 70 320 152 441
174 63 11 220 8 232 -4 3 -3 -8 -43 -26 -89 -22 -57 -44 -96 -72 -125 -22 -22
-38 -45 -34 -51 3 -5 -17 -12 -47 -16 -79 -11 -184 -66 -253 -133 -52 -51
-124 -142 -124 -157 0 -3 17 1 38 8 50 18 112 14 128 -9 11 -15 9 -21 -14 -45
-90 -91 -204 -244 -250 -336 -31 -61 -63 -163 -69 -216 -5 -47 -5 -48 23 -48
143 2 393 140 571 317 28 27 34 29 50 18 14 -10 18 -26 17 -68 -1 -29 -7 -63
-13 -75 -16 -29 -8 -28 45 9 125 86 227 233 241 346 3 30 10 50 15 47 6 -4 29
12 51 34 23 23 62 48 87 57 25 8 52 18 60 22 8 3 20 7 25 9 6 1 18 5 27 9 40
16 36 -194 -6 -339 -33 -109 -85 -228 -151 -340 l-27 -46 54 24 c269 119 504
350 634 623 29 62 74 176 74 188 0 2 -17 1 -37 -1 -48 -5 -124 22 -166 58 -27
23 -30 29 -17 37 107 66 390 331 507 476 215 267 406 653 489 990 42 170 47
205 30 205 -7 0 -15 -2 -17 -4z"/>
</g>
</svg>
